#!OML:ASF E:\Steps\Project 1\Capture day 1\Session 2\Subject.ASF
:FULLY-SPECIFIED
:DEGREES
861
root 9.10319 22.6905 -13.6192 -155.805 -1.59124 177.498
lowerback -28.6314 -2.07659 -7.13803
upperback -1.14891 -0.993637 -0.121193
thorax 13.9599 -1.14806 3.31369
lowerneck -2.7542 -1.20507 -2.05702
upperneck 19.1422 -3.38019 3.19814
head 6.33464 -2.05715 1.09409
rclavicle 4.5472e-015 8.15017e-015
rhumerus -43.1327 -18.1575 -73.9524
rradius 31.212
rwrist -0.500236
rhand -8.58148 -53.1182
rfingers 7.12502
rthumb 17.3493 -82.3639
lclavicle 4.5472e-015 8.15017e-015
lhumerus -32.9913 4.00916 81.7735
lradius 22.7681
lwrist -3.72804
lhand -18.8413 -11.9316
lfingers 7.12502
lthumb 7.45832 17.9169
rfemur -24.6668 7.5196 16.324
rtibia 9.81376
rfoot -17.2735 -6.2469
rtoes -28.5558
lfemur -24.7231 -8.91959 -22.9091
ltibia 11.1598
lfoot -7.69008 -1.04075
ltoes -35.9529
862
root 9.10528 22.6897 -13.6453 -155.857 -1.69453 177.557
lowerback -28.6774 -2.0342 -6.96433
upperback -1.09971 -0.982856 -0.10243
thorax 14.0377 -1.13264 3.2441
lowerneck -3.11681 -1.30341 -2.48044
upperneck 18.6674 -3.45086 3.7328
head 6.26352 -2.04368 1.33101
rclavicle 1.46604e-015 -1.37161e-014
rhumerus -42.5487 -18.5325 -73.8828
rradius 30.876
rwrist -0.292084
rhand -8.75033 -52.618
rfingers 7.12502
rthumb 17.1868 -81.8779
lclavicle 1.46604e-015 -1.37161e-014
lhumerus -32.8327 4.25432 81.7376
lradius 22.2688
lwrist -4.37743
lhand -18.9253 -12.2663
lfingers 7.12502
lthumb 7.37726 17.5851
rfemur -24.1545 7.31619 16.4598
rtibia 9.15029
rfoot -17.1478 -5.93832
rtoes -27.9048
lfemur -24.4824 -9.02353 -22.8129
ltibia 11.0026
lfoot -7.74676 -0.97672
ltoes -36.4455
863
root 9.10731 22.6872 -13.6703 -155.867 -1.88768 177.666
lowerback -28.6893 -1.98935 -6.72953
upperback -1.2943 -1.03328 -0.129883
thorax 13.8209 -1.14124 3.06598
lowerneck -2.60577 -1.18735 -2.3909
upperneck 18.2825 -3.30412 3.85394
head 6.04829 -1.96509 1.37126
rclavicle -2.60905e-015 -1.19271e-014
rhumerus -42.5506 -18.5956 -73.933
rradius 30.7696
rwrist -0.340473
rhand -9.33767 -51.7252
rfingers 7.12502
rthumb 16.6214 -81.0335
lclavicle -2.60905e-015 -1.19271e-014
lhumerus -33.0824 4.19288 81.6342
lradius 21.7017
lwrist -4.81316
lhand -18.8431 -12.3358
lfingers 7.12502
lthumb 7.4566 17.5128
rfemur -23.7306 7.04276 16.6859
rtibia 8.6188
rfoot -17.1 -5.71421
rtoes -27.8573
lfemur -24.3253 -9.00705 -22.6822
ltibia 10.8849
lfoot -7.8211 -1.06333
ltoes -36.8718
864
root 9.11517 22.6836 -13.6958 -155.831 -2.082 177.742
lowerback -28.7897 -2.00336 -6.62346
upperback -1.40828 -1.10548 -0.111201
thorax 13.7421 -1.17113 2.99782
lowerneck -1.9331 -1.0753 -2.44774
upperneck 17.3342 -3.11102 4.23209
head 5.63353 -1.84041 1.52329
rclavicle -1.0138e-014 1.47101e-014
rhumerus -42.4131 -18.4277 -74.1064
rradius 30.9458
rwrist -0.578127
rhand -9.47336 -51.7055
rfingers 7.12502
rthumb 16.4907 -81.0247
lclavicle -1.0138e-014 1.47101e-014
lhumerus -33.2559 4.00597 81.654
lradius 21.2559
lwrist -5.1406
lhand -18.6758 -12.0858
lfingers 7.12502
lthumb 7.61812 17.757
rfemur -23.4344 6.9033 16.8555
rtibia 8.24945
rfoot -17.0876 -5.67655
rtoes -27.9222
lfemur -24.245 -8.96842 -22.5449
ltibia 10.7742
lfoot -7.81153 -1.21017
ltoes -36.0274
865
root 9.12305 22.6796 -13.7227 -155.728 -2.26619 177.865
lowerback -29.1116 -2.01434 -6.48096
upperback -1.35565 -1.15053 -0.0325314
thorax 13.9567 -1.19101 2.98126
lowerneck -2.93715 -1.26623 -1.97336
upperneck 17.8009 -3.2623 3.48443
head 5.94192 -1.90539 1.18798
rclavicle -8.24956e-015 8.74653e-015
rhumerus -41.9871 -18.2668 -74.2973
rradius 31.2406
rwrist -0.998586
rhand -9.1868 -52.3323
rfingers 7.12502
rthumb 16.7666 -81.6284
lclavicle -8.24956e-015 8.74653e-015
lhumerus -33.2898 3.86103 81.7473
lradius 21.0247
lwrist -5.59347
lhand -18.463 -11.7975
lfingers 7.12502
lthumb 7.82352 18.0378
rfemur -23.3206 6.75564 17.0795
rtibia 8.07953
rfoot -17.1659 -5.55209
rtoes -27.7919
lfemur -24.242 -9.00092 -22.33
ltibia 10.6922
lfoot -7.79263 -1.30481
ltoes -35.4549
866
root 9.12726 22.6785 -13.7421 -155.644 -2.4024 177.928
lowerback -29.3273 -1.98206 -6.34363
upperback -1.38393 -1.15296 -0.00494909
thorax 14.0224 -1.1894 2.9305
lowerneck -2.58162 -1.28962 -1.99291
upperneck 17.2408 -3.2156 3.41526
head 5.70274 -1.87832 1.18006
rclavicle -1.83876e-015 2.76311e-014
rhumerus -41.7669 -18.2373 -74.3527
rradius 31.4721
rwrist -1.43697
rhand -9.27573 -52.1083
rfingers 7.12502
rthumb 16.681 -81.4115
lclavicle -1.83876e-015 2.76311e-014
lhumerus -33.2711 3.92278 81.7005
lradius 20.4864
lwrist -6.32458
lhand -18.2565 -12.0117
lfingers 7.12502
lthumb 8.02276 17.816
rfemur -23.2858 6.47823 17.2414
rtibia 8.05859
rfoot -17.3023 -5.32465
rtoes -27.7841
lfemur -24.2451 -9.08602 -22.2124
ltibia 10.6531
lfoot -7.7998 -1.31156
ltoes -36.0594
867
root 9.12887 22.6783 -13.7592 -155.622 -2.44194 177.873
lowerback -29.4133 -1.92842 -6.31207
upperback -1.38384 -1.088 -0.0152702
thorax 14.0548 -1.15986 2.9256
lowerneck -2.43052 -1.38247 -2.25089
upperneck 16.6852 -3.26791 3.57472
head 5.51089 -1.89113 1.27569
rclavicle -5.59082e-015 1.64991e-014
rhumerus -41.4324 -18.4873 -74.2724
rradius 31.4885
rwrist -1.61129
rhand -9.73516 -51.9082
rfingers 7.12502
rthumb 16.2387 -81.2481
lclavicle -5.59082e-015 1.64991e-014
lhumerus -32.9794 4.02033 81.6869
lradius 19.7101
lwrist -7.1174
lhand -18.2997 -12.6667
lfingers 7.12502
lthumb 7.9811 17.1626
rfemur -23.1162 6.13526 17.2677
rtibia 7.8829
rfoot -17.3251 -5.02482
rtoes -27.8176
lfemur -24.1107 -9.23349 -22.2596
ltibia 10.4972
lfoot -7.7414 -1.22864
ltoes -36.0888
